# This file uses centimeters as units for non-parametric coordinates.

mtllib ladrillosfondos_00.mtl
g default
v -47.617466 -47.617466 0.000000
v 47.617466 -47.617466 0.000000
v -47.617466 47.617466 0.000000
v 47.617466 47.617466 0.000000
vt 0.021858 0.021858
vt 0.978142 0.021858
vt 0.978142 0.978142
vt 0.021858 0.978142
vn 0.000000 0.000000 1.000000
vn 0.000000 0.000000 1.000000
vn 0.000000 0.000000 1.000000
vn 0.000000 0.000000 1.000000
s off
g pPlane1
usemtl initialShadingGroup
f 1/1/1 2/2/2 4/3/3 3/4/4
